<svg width="211" height="95" viewBox="0 0 211 95" fill="none" xmlns="http://www.w3.org/2000/svg">
<g clip-path="url(#clip0_10_244)">
<path d="M205.235 25.805C202.058 25.805 199.47 23.2275 199.47 20.0529C199.47 16.8782 202.058 14.3107 205.235 14.3107C208.412 14.3107 211 16.8882 211 20.0529C211 23.2175 208.412 25.805 205.235 25.805ZM205.235 15.2262C202.558 15.2262 200.39 17.3957 200.39 20.0529C200.39 22.71 202.568 24.8894 205.235 24.8894C207.903 24.8894 210.081 22.7199 210.081 20.0529C210.081 17.3858 207.903 15.2262 205.235 15.2262Z" fill="#818181"/>
<path d="M202.947 17.147H205.555C205.925 17.147 206.244 17.1967 206.534 17.2962C206.814 17.3958 207.054 17.545 207.243 17.7242C207.403 17.8834 207.513 18.0725 207.603 18.2815C207.683 18.4905 207.733 18.7293 207.733 18.9781V18.998C207.733 19.2369 207.703 19.4558 207.633 19.6449C207.563 19.834 207.473 20.0031 207.343 20.1524C207.223 20.3017 207.074 20.4211 206.904 20.5306C206.734 20.6401 206.544 20.7097 206.334 20.7694L207.913 22.9787H206.704L205.265 20.9486H203.976V22.9787H202.957V17.147H202.947ZM205.475 20.033C205.845 20.033 206.134 19.9434 206.354 19.7743C206.574 19.5951 206.684 19.3563 206.684 19.0577V19.0378C206.684 18.7194 206.574 18.4805 206.364 18.3113C206.154 18.1521 205.855 18.0625 205.465 18.0625H203.966V20.023H205.475V20.033Z" fill="#818181"/>
<path fill-rule="evenodd" clip-rule="evenodd" d="M74.6527 17.9729C74.6527 21.6053 71.6954 24.5511 68.0486 24.5511C64.4019 24.5511 61.4446 21.6053 61.4446 17.9729C61.4446 14.3405 64.4019 11.3948 68.0486 11.3948C71.6954 11.3948 74.6527 14.3405 74.6527 17.9729Z" fill="#088A47"/>
<path fill-rule="evenodd" clip-rule="evenodd" d="M119.622 17.9729C119.622 21.6053 116.665 24.5511 113.028 24.5511C109.391 24.5511 106.444 21.6053 106.444 17.9729C106.444 14.3405 109.391 11.3948 113.028 11.3948C116.665 11.3948 119.622 14.3405 119.622 17.9729Z" fill="#6D9A41"/>
<path fill-rule="evenodd" clip-rule="evenodd" d="M35.6979 28.6911V32.5623C31.9712 29.7957 27.3554 28.1537 22.3499 28.1537C10.011 28.1537 0 38.1154 0 50.4159C0 62.7163 10.011 72.6781 22.3499 72.6781C27.3554 72.6781 31.9812 71.036 35.6979 68.2694V72.2601H46.4981V28.6911H35.6979ZM22.3499 61.0842C16.4352 61.0842 11.6395 56.3074 11.6395 50.4159C11.6395 44.5244 16.4352 39.7475 22.3499 39.7475C28.2645 39.7475 33.0602 44.5244 33.0602 50.4159C33.0602 56.3074 28.2645 61.0842 22.3499 61.0842Z" fill="#6D9A41"/>
<path d="M156.059 61.4326V61.4127H154.071C149.645 61.4127 148.926 58.3376 148.886 56.5263V39.3296H155.34V39.2997C155.41 39.2997 155.48 39.3097 155.55 39.3097C158.627 39.3097 161.125 36.8815 161.125 33.8959C161.125 30.9104 158.627 28.4821 155.55 28.4821C155.47 28.4821 155.41 28.4821 155.34 28.4821V28.4622H148.886V21.5159H148.866C148.716 18.6995 146.368 16.4404 143.481 16.4404C140.593 16.4404 138.265 18.6995 138.106 21.5159V21.5855C138.106 21.6651 138.096 21.7348 138.096 21.8045C138.096 21.8741 138.106 21.9537 138.106 22.0234V28.4523H131.532V28.4722C128.524 28.5418 126.096 30.9402 126.096 33.876C126.096 36.8118 128.524 39.2102 131.532 39.2898V39.3097H138.106V56.5064C138.106 56.9045 138.156 60.4672 140.014 64.0897C142.691 69.2746 147.677 72.1308 154.061 72.1308H155.44C155.5 72.1308 155.57 72.1407 155.63 72.1407C155.69 72.1407 155.77 72.1407 155.83 72.1308H156.049C158.827 71.9118 161.025 69.5931 161.025 66.7667C161.025 63.9404 158.827 61.6316 156.049 61.4226" fill="#6D9A41"/>
<path fill-rule="evenodd" clip-rule="evenodd" d="M200.4 62.2784C200.01 61.3031 198.781 61.1339 198.072 61.0742H182.995C182.995 61.0742 182.925 61.0742 182.885 61.0742C182.865 61.0742 182.835 61.0742 182.815 61.0742C176.931 61.0245 172.185 56.2675 172.185 50.4059C172.185 44.5443 176.981 39.7475 182.895 39.7475C186.682 39.7475 189.999 41.698 191.907 44.6537H183.575C183.435 44.6438 183.295 44.6338 183.145 44.6338C180.058 44.6338 177.57 47.1218 177.57 50.1869C177.57 53.2521 180.068 55.75 183.145 55.75C183.245 55.75 183.335 55.75 183.435 55.7301H199.48C203.946 55.7002 204.995 52.8242 205.215 51.0328C205.215 50.8239 205.235 50.6248 205.235 50.4158C205.235 45.8778 203.866 41.6582 201.529 38.1353C201.349 37.8666 201.169 37.6078 200.989 37.3591C200.969 37.3292 200.949 37.2993 200.929 37.2794C200.759 37.0406 200.579 36.8117 200.4 36.5928C200.36 36.543 200.32 36.4932 200.28 36.4435C200.11 36.2345 199.94 36.0255 199.76 35.8364C199.71 35.7767 199.65 35.707 199.59 35.6473C199.43 35.4583 199.251 35.2791 199.071 35.1C199.001 35.0303 198.941 34.9607 198.871 34.881C198.701 34.7119 198.531 34.5526 198.361 34.3735C198.281 34.2939 198.192 34.2143 198.112 34.1446C197.942 33.9953 197.772 33.8361 197.602 33.6868C197.512 33.6072 197.422 33.5176 197.322 33.438C197.152 33.2987 196.983 33.1494 196.813 33.03C196.713 32.9404 196.603 32.8509 196.493 32.7812C196.323 32.6518 196.153 32.5324 195.984 32.403C195.874 32.3135 195.764 32.2339 195.644 32.1543C195.474 32.0448 195.304 31.9254 195.124 31.8159C195.004 31.7363 194.874 31.6467 194.755 31.577C194.585 31.4775 194.415 31.3681 194.235 31.2586C194.105 31.1889 193.965 31.1093 193.835 31.0297C193.666 30.9401 193.496 30.8406 193.326 30.751C193.186 30.6714 193.036 30.6018 192.896 30.5321C192.726 30.4425 192.547 30.353 192.377 30.2734C192.227 30.2037 192.077 30.134 191.927 30.0743C191.747 30.0047 191.577 29.925 191.408 29.8554C191.248 29.7857 191.088 29.736 190.928 29.6663C190.758 29.6066 190.588 29.527 190.409 29.4772C190.239 29.4175 190.079 29.3578 189.899 29.308C189.729 29.2483 189.559 29.1886 189.389 29.1389C189.22 29.0891 189.04 29.0393 188.86 28.9896C188.69 28.9498 188.52 28.9 188.35 28.8502C188.161 28.8005 187.981 28.7607 187.801 28.7209C187.631 28.6811 187.471 28.6413 187.291 28.6114C187.102 28.5716 186.902 28.5318 186.712 28.5019C186.542 28.4721 186.382 28.4422 186.222 28.4124C186.012 28.3825 185.803 28.3626 185.583 28.3328C185.433 28.3129 185.273 28.283 185.123 28.273C184.883 28.2432 184.644 28.2332 184.404 28.2133C184.274 28.2133 184.144 28.1934 184.014 28.1835C183.655 28.1735 183.275 28.1636 182.905 28.1636H182.885C170.546 28.1636 160.545 38.1253 160.545 50.4158C160.545 62.7063 170.546 72.678 182.885 72.678C183.425 72.678 183.964 72.6581 184.494 72.6183C184.664 72.6084 184.844 72.5885 185.013 72.5686C185.363 72.5387 185.723 72.4889 186.072 72.4392C186.272 72.4093 186.472 72.3795 186.672 72.3397C186.992 72.2899 187.311 72.2202 187.631 72.1506C187.841 72.1108 188.041 72.061 188.24 72.0113C188.55 71.9316 188.86 71.852 189.16 71.7625C189.359 71.7028 189.549 71.643 189.739 71.5833C190.049 71.4838 190.369 71.3644 190.678 71.2549C190.848 71.1853 191.028 71.1355 191.198 71.0658C191.597 70.9066 191.987 70.7374 192.377 70.5583C192.477 70.5085 192.577 70.4687 192.676 70.419C193.066 70.2199 193.456 70.0209 193.835 69.8119C193.835 69.8119 193.835 69.8119 193.835 69.802C196.153 68.5082 198.201 66.8065 199.91 64.8062C200.779 63.5025 200.669 62.9153 200.4 62.2684" fill="#6D9A41"/>
<mask id="mask0_10_244" style="mask-type:luminance" maskUnits="userSpaceOnUse" x="50" y="28" width="44" height="45">
<path d="M57.4184 34.7418C53.372 38.7823 50.8643 44.3453 50.8643 50.4955C50.8643 56.6458 53.362 62.2188 57.4184 66.2493C61.4647 70.2797 67.0597 72.7776 73.2341 72.7776C79.4086 72.7776 85.0035 70.2897 89.0499 66.2493C91.108 64.1892 92.7765 61.751 93.9055 59.0242C81.5167 66.7767 67.859 64.8262 63.7127 55.4217C62.9434 53.9488 62.5138 52.267 62.5138 50.4955C62.5138 47.5498 63.7127 44.8728 65.6609 42.9421C67.5992 41.0115 70.2768 39.8073 73.2441 39.8073C74.1133 39.8073 74.9725 39.9267 75.7818 40.1158V40.0859C76.1715 40.1556 76.5711 40.2054 76.9708 40.2054C80.1779 40.2054 82.7655 37.6179 82.7655 34.4333C82.7655 31.5572 80.6674 29.1788 77.9099 28.7309V28.711C76.4113 28.3926 74.8427 28.2234 73.2441 28.2234C67.0697 28.2234 61.4747 30.7113 57.4283 34.7418" fill="white"/>
</mask>
<g mask="url(#mask0_10_244)">
<path d="M93.8955 28.2234H50.8643V72.7776H93.8955V28.2234Z" fill="url(#paint0_linear_10_244)"/>
</g>
<mask id="mask1_10_244" style="mask-type:luminance" maskUnits="userSpaceOnUse" x="63" y="28" width="58" height="36">
<path d="M90.4985 34.7518C86.4522 38.7823 83.9444 44.3453 83.9444 50.5055C83.9444 53.4612 82.7455 56.1283 80.8072 58.0589C78.869 59.9896 76.1814 61.1838 73.2241 61.1838C70.2667 61.1838 67.5791 59.9995 65.6409 58.0589C64.8716 57.2926 64.2122 56.397 63.7026 55.4217C67.8489 64.8063 81.5066 66.7767 93.8955 59.0243C94.9845 56.397 95.5939 53.5209 95.5939 50.4955C95.5939 47.4702 96.7928 44.8728 98.7311 42.9421C100.669 41.0115 103.357 39.8172 106.314 39.8172C107.843 39.8172 109.292 40.1357 110.6 40.703C111.839 41.2304 112.958 42.0066 113.887 42.9421C115.826 44.8728 117.035 47.5498 117.035 50.4955C117.035 53.083 116.115 55.4416 114.597 57.2926C123.579 48.3061 122.769 30.1341 106.324 28.2234C100.16 28.2234 94.5648 30.7213 90.5185 34.7518" fill="white"/>
</mask>
<g mask="url(#mask1_10_244)">
<path d="M83.9695 0.000814652L45.3723 53.7211L103.285 95.0048L141.882 41.2845L83.9695 0.000814652Z" fill="url(#paint1_linear_10_244)"/>
</g>
<mask id="mask2_10_244" style="mask-type:luminance" maskUnits="userSpaceOnUse" x="90" y="28" width="39" height="45">
<path d="M114.577 57.2926C114.357 57.5613 114.127 57.8101 113.877 58.0589C112.898 59.0441 111.719 59.8402 110.411 60.3776C109.142 60.915 107.763 61.1937 106.314 61.1937C103.357 61.1937 100.669 59.9995 98.731 58.0589C97.9118 57.2528 97.2324 56.2974 96.7128 55.2624C96.2433 57.2528 94.6147 63.1243 90.8381 66.5776C93.8854 69.4835 97.7619 71.5635 102.078 72.3795C103.447 72.6383 104.866 72.7776 106.314 72.7776C112.479 72.7776 118.064 70.2896 122.11 66.2592C126.156 62.2287 128.664 56.6557 128.664 50.5054L128.634 49.2913C128.634 49.2913 128.704 44.813 125.647 39.4689C122.38 33.7764 117.025 30.9501 117.025 30.9501C113.837 29.2185 110.191 28.2333 106.314 28.2333C122.749 30.144 123.559 48.316 114.577 57.3025" fill="white"/>
</mask>
<g mask="url(#mask2_10_244)">
<path d="M128.704 28.2333H90.8281V72.7776H128.704V28.2333Z" fill="url(#paint2_linear_10_244)"/>
</g>
<path d="M38.2556 80.1021C38.6652 79.6941 39.2047 79.4851 39.8841 79.4851C40.4236 79.4851 40.9332 79.6543 41.4127 80.0026L40.9232 80.8684C40.7433 80.749 40.5835 80.6594 40.4336 80.6097C40.2837 80.5599 40.1239 80.53 39.944 80.53C39.6043 80.53 39.3346 80.6395 39.1448 80.8485C38.9449 81.0674 38.855 81.3959 38.855 81.8437V82.2915H40.8233V83.3564H38.855V88.6806H37.6461V83.3564H36.4072V82.2915H37.6461V81.8437C37.6461 81.0973 37.8459 80.5101 38.2556 80.0922" fill="#5A5B5B"/>
<path d="M44.5399 88.4019C44.0204 88.1133 43.6208 87.7152 43.341 87.2077C43.0613 86.7001 42.9214 86.1329 42.9214 85.5059C42.9214 84.879 43.0613 84.3117 43.341 83.7942C43.6208 83.2867 44.0204 82.8886 44.5399 82.6C45.0495 82.3114 45.6389 82.1621 46.3083 82.1621C46.9777 82.1621 47.5672 82.3114 48.0767 82.6C48.5863 82.8886 48.9859 83.2867 49.2657 83.7942C49.5454 84.3017 49.6853 84.869 49.6853 85.5059C49.6853 86.1428 49.5454 86.7001 49.2657 87.2077C48.9859 87.7152 48.5863 88.1133 48.0767 88.4019C47.5672 88.6905 46.9777 88.8298 46.3083 88.8298C45.6389 88.8298 45.0495 88.6905 44.5399 88.4019ZM44.41 86.6106C44.5899 86.9489 44.8497 87.2176 45.1794 87.4167C45.5091 87.6157 45.8887 87.7152 46.3183 87.7152C46.7479 87.7152 47.1176 87.6157 47.4473 87.4167C47.777 87.2176 48.0268 86.9489 48.2166 86.6106C48.3965 86.2722 48.4864 85.894 48.4864 85.496C48.4864 85.0979 48.3965 84.7197 48.2166 84.3814C48.0368 84.043 47.777 83.7743 47.4473 83.5753C47.1176 83.3762 46.738 83.2767 46.3183 83.2767C45.8987 83.2767 45.5091 83.3762 45.1794 83.5753C44.8497 83.7743 44.5899 84.043 44.41 84.3814C44.2302 84.7197 44.1403 85.0879 44.1403 85.496C44.1403 85.904 44.2302 86.2722 44.41 86.6106Z" fill="#5A5B5B"/>
<path d="M52.6826 82.3015H53.7616V83.3763C54.0314 82.9683 54.3211 82.6697 54.6508 82.4806C54.9805 82.2915 55.3602 82.192 55.7898 82.192C56.0896 82.192 56.3793 82.2418 56.659 82.3313C56.9388 82.4209 57.1686 82.5403 57.3584 82.6996L56.8189 83.7047C56.4692 83.4758 56.1095 83.3663 55.7299 83.3663C55.1804 83.3663 54.7308 83.5654 54.4011 83.9634C54.0714 84.3715 53.9015 84.889 53.9015 85.5458V88.6906H52.6926V82.3015H52.6826Z" fill="#5A5B5B"/>
<path d="M65.9805 88.6508L63.4229 82.3015H64.7217L65.9706 85.4861L66.6599 87.3172L67.4093 85.4861L68.7481 82.3015H70.0469L65.9905 91.6861H64.6717L65.9805 88.6508Z" fill="#5A5B5B"/>
<path d="M73.7435 88.4019C73.224 88.1133 72.8244 87.7152 72.5446 87.2077C72.2649 86.7001 72.125 86.1329 72.125 85.5059C72.125 84.879 72.2649 84.3117 72.5446 83.7942C72.8244 83.2867 73.224 82.8886 73.7435 82.6C74.2531 82.3114 74.8426 82.1621 75.5119 82.1621C76.1813 82.1621 76.7708 82.3114 77.2804 82.6C77.7899 82.8886 78.1895 83.2867 78.4693 83.7942C78.749 84.3017 78.8889 84.869 78.8889 85.5059C78.8889 86.1428 78.749 86.7001 78.4693 87.2077C78.1895 87.7152 77.7899 88.1133 77.2804 88.4019C76.7708 88.6905 76.1813 88.8298 75.5119 88.8298C74.8426 88.8298 74.2531 88.6905 73.7435 88.4019ZM73.6037 86.6106C73.7835 86.9489 74.0433 87.2176 74.373 87.4167C74.7027 87.6157 75.0823 87.7152 75.5119 87.7152C75.9416 87.7152 76.3112 87.6157 76.6409 87.4167C76.9706 87.2176 77.2204 86.9489 77.4102 86.6106C77.5901 86.2722 77.68 85.894 77.68 85.496C77.68 85.0979 77.5901 84.7197 77.4102 84.3814C77.2304 84.043 76.9706 83.7743 76.6409 83.5753C76.3112 83.3762 75.9316 83.2767 75.5119 83.2767C75.0923 83.2767 74.7027 83.3762 74.373 83.5753C74.0433 83.7743 73.7835 84.043 73.6037 84.3814C73.4238 84.7197 73.3339 85.0879 73.3339 85.496C73.3339 85.904 73.4238 86.2722 73.6037 86.6106Z" fill="#5A5B5B"/>
<path d="M82.5357 88.0039C82.0462 87.4665 81.7964 86.75 81.7964 85.8444V82.3015H83.0053V85.7647C83.0053 86.3718 83.1552 86.8495 83.4449 87.1879C83.7346 87.5262 84.1543 87.6954 84.6738 87.6954C85.2533 87.6954 85.7228 87.5063 86.0925 87.1281C86.4522 86.75 86.632 86.2822 86.632 85.705V82.3015H87.8409V88.6906H86.7619V87.785C86.4822 88.1233 86.1525 88.3721 85.7728 88.5513C85.3931 88.7204 84.9635 88.81 84.5039 88.81C83.6847 88.81 83.0253 88.5413 82.5257 88.0039" fill="#5A5B5B"/>
<path d="M91.2678 82.3015H92.3469V83.3763C92.6166 82.9683 92.9063 82.6697 93.2361 82.4806C93.5658 82.2915 93.9454 82.192 94.375 82.192C94.6748 82.192 94.9645 82.2418 95.2442 82.3313C95.524 82.4209 95.7538 82.5403 95.9436 82.6996L95.4041 83.7047C95.0544 83.4758 94.6947 83.3663 94.3151 83.3663C93.7656 83.3663 93.316 83.5654 92.9863 83.9634C92.6566 84.3715 92.4867 84.889 92.4867 85.5458V88.6906H91.2778V82.3015H91.2678Z" fill="#5A5B5B"/>
<path d="M104.166 88.2129C103.826 87.8347 103.657 87.2873 103.657 86.5609V83.3464H102.398V82.3015H103.657V80.5798L104.855 80.4504V82.3015H106.804V83.3464H104.855V86.5609C104.855 86.9291 104.935 87.2077 105.095 87.4068C105.255 87.5958 105.495 87.6954 105.835 87.6954C106.094 87.6954 106.384 87.6257 106.704 87.4864L107.054 88.4816C106.604 88.6806 106.144 88.7801 105.695 88.7801C105.025 88.7801 104.526 88.591 104.176 88.2228" fill="#5A5B5B"/>
<path d="M110.91 88.4019C110.391 88.1133 109.991 87.7152 109.711 87.2077C109.431 86.7001 109.292 86.1329 109.292 85.5059C109.292 84.879 109.431 84.3117 109.711 83.7942C109.991 83.2867 110.391 82.8886 110.91 82.6C111.42 82.3114 112.009 82.1621 112.678 82.1621C113.348 82.1621 113.937 82.3114 114.447 82.6C114.956 82.8886 115.356 83.2867 115.636 83.7942C115.916 84.3017 116.055 84.869 116.055 85.5059C116.055 86.1428 115.916 86.7001 115.636 87.2077C115.356 87.7152 114.956 88.1133 114.447 88.4019C113.937 88.6905 113.348 88.8298 112.678 88.8298C112.009 88.8298 111.42 88.6905 110.91 88.4019ZM110.77 86.6106C110.95 86.9489 111.21 87.2176 111.539 87.4167C111.869 87.6157 112.249 87.7152 112.678 87.7152C113.108 87.7152 113.478 87.6157 113.807 87.4167C114.137 87.2176 114.387 86.9489 114.577 86.6106C114.757 86.2722 114.846 85.894 114.846 85.496C114.846 85.0979 114.757 84.7197 114.577 84.3814C114.397 84.043 114.137 83.7743 113.807 83.5753C113.478 83.3762 113.098 83.2767 112.678 83.2767C112.259 83.2767 111.869 83.3762 111.539 83.5753C111.21 83.7743 110.95 84.043 110.77 84.3814C110.59 84.7197 110.5 85.0879 110.5 85.496C110.5 85.904 110.59 86.2722 110.77 86.6106Z" fill="#5A5B5B"/>
<path d="M119.053 82.3015H120.132V83.1275C120.621 82.5006 121.271 82.1821 122.09 82.1821C122.58 82.1821 123.009 82.2916 123.379 82.5105C123.758 82.7295 124.038 83.028 124.228 83.4062C124.478 83.0081 124.808 82.7096 125.197 82.5006C125.587 82.2916 126.046 82.1921 126.556 82.1921C127.375 82.1921 128.025 82.4409 128.504 82.9385C128.974 83.4361 129.214 84.1227 129.214 84.9885V88.7006H128.005V85.0682C128.005 84.5009 127.875 84.063 127.615 83.7645C127.355 83.4659 126.986 83.3166 126.496 83.3166C125.966 83.3166 125.537 83.4858 125.217 83.8242C124.887 84.1625 124.728 84.6104 124.728 85.1478V88.7006H123.519V85.0682C123.519 84.5009 123.389 84.063 123.129 83.7645C122.869 83.4659 122.5 83.3166 122.01 83.3166C121.491 83.3166 121.071 83.4858 120.741 83.8242C120.411 84.1625 120.252 84.6104 120.252 85.1478V88.7006H119.043V82.3115L119.053 82.3015Z" fill="#5A5B5B"/>
<path d="M133.73 88.4019C133.21 88.1133 132.81 87.7152 132.531 87.2077C132.251 86.7001 132.111 86.1329 132.111 85.5059C132.111 84.879 132.251 84.3117 132.531 83.7942C132.81 83.2867 133.21 82.8886 133.73 82.6C134.239 82.3114 134.829 82.1621 135.498 82.1621C136.167 82.1621 136.757 82.3114 137.266 82.6C137.776 82.8886 138.176 83.2867 138.455 83.7942C138.735 84.3017 138.875 84.869 138.875 85.5059C138.875 86.1428 138.735 86.7001 138.455 87.2077C138.176 87.7152 137.776 88.1133 137.266 88.4019C136.757 88.6905 136.167 88.8298 135.498 88.8298C134.829 88.8298 134.239 88.6905 133.73 88.4019ZM133.59 86.6106C133.77 86.9489 134.029 87.2176 134.359 87.4167C134.689 87.6157 135.068 87.7152 135.498 87.7152C135.928 87.7152 136.297 87.6157 136.627 87.4167C136.957 87.2176 137.207 86.9489 137.396 86.6106C137.576 86.2722 137.666 85.894 137.666 85.496C137.666 85.0979 137.576 84.7197 137.396 84.3814C137.216 84.043 136.957 83.7743 136.627 83.5753C136.297 83.3762 135.918 83.2767 135.498 83.2767C135.078 83.2767 134.689 83.3762 134.359 83.5753C134.029 83.7743 133.77 84.043 133.59 84.3814C133.41 84.7197 133.32 85.0879 133.32 85.496C133.32 85.904 133.41 86.2722 133.59 86.6106Z" fill="#5A5B5B"/>
<path d="M141.882 82.3015H142.961V83.3763C143.231 82.9683 143.521 82.6697 143.851 82.4806C144.18 82.2915 144.56 82.192 144.99 82.192C145.289 82.192 145.579 82.2418 145.859 82.3313C146.139 82.4209 146.368 82.5403 146.558 82.6996L146.019 83.7047C145.669 83.4758 145.309 83.3663 144.93 83.3663C144.38 83.3663 143.93 83.5654 143.601 83.9634C143.271 84.3715 143.101 84.889 143.101 85.5458V88.6906H141.892V82.3015H141.882Z" fill="#5A5B5B"/>
<path d="M149.056 82.3015H150.135V83.3763C150.404 82.9683 150.694 82.6697 151.024 82.4806C151.354 82.2915 151.733 82.192 152.163 82.192C152.463 82.192 152.752 82.2418 153.032 82.3313C153.312 82.4209 153.542 82.5403 153.731 82.6996L153.192 83.7047C152.842 83.4758 152.483 83.3663 152.103 83.3663C151.553 83.3663 151.104 83.5654 150.774 83.9634C150.444 84.3715 150.275 84.889 150.275 85.5458V88.6906H149.066V82.3015H149.056Z" fill="#5A5B5B"/>
<path d="M157.218 88.4019C156.699 88.1133 156.299 87.7152 156.019 87.2077C155.74 86.7001 155.6 86.1329 155.6 85.5059C155.6 84.879 155.74 84.3117 156.019 83.7942C156.299 83.2867 156.699 82.8886 157.218 82.6C157.728 82.3114 158.317 82.1621 158.987 82.1621C159.656 82.1621 160.246 82.3114 160.755 82.6C161.265 82.8886 161.664 83.2867 161.944 83.7942C162.224 84.3017 162.364 84.869 162.364 85.5059C162.364 86.1428 162.224 86.7001 161.944 87.2077C161.664 87.7152 161.265 88.1133 160.755 88.4019C160.246 88.6905 159.656 88.8298 158.987 88.8298C158.317 88.8298 157.728 88.6905 157.218 88.4019ZM157.079 86.6106C157.258 86.9489 157.518 87.2176 157.848 87.4167C158.178 87.6157 158.557 87.7152 158.987 87.7152C159.416 87.7152 159.786 87.6157 160.116 87.4167C160.445 87.2176 160.695 86.9489 160.885 86.6106C161.065 86.2722 161.155 85.894 161.155 85.496C161.155 85.0979 161.065 84.7197 160.885 84.3814C160.705 84.043 160.445 83.7743 160.116 83.5753C159.786 83.3762 159.406 83.2767 158.987 83.2767C158.567 83.2767 158.178 83.3762 157.848 83.5753C157.518 83.7743 157.258 84.043 157.079 84.3814C156.899 84.7197 156.809 85.0879 156.809 85.496C156.809 85.904 156.899 86.2722 157.079 86.6106Z" fill="#5A5B5B"/>
<path d="M164.402 82.3015H165.691L166.47 84.7596L167.229 87.3073L168.988 82.3015H170.067L171.795 87.3471L172.594 84.7596L173.364 82.3015H174.633L172.495 88.6906H171.166L170.546 86.8296L169.527 84.0232L168.518 86.8296L167.879 88.6906H166.56L164.402 82.3015Z" fill="#5A5B5B"/>
</g>
<defs>
<linearGradient id="paint0_linear_10_244" x1="49.5658" y1="53.2466" x2="94.8642" y2="53.2466" gradientUnits="userSpaceOnUse">
<stop stop-color="#39A849"/>
<stop offset="0.04" stop-color="#39A849"/>
<stop offset="0.34" stop-color="#83BC41"/>
<stop offset="1" stop-color="#6E9A42"/>
</linearGradient>
<linearGradient id="paint1_linear_10_244" x1="117.527" y1="21.7286" x2="78.8845" y2="75.9364" gradientUnits="userSpaceOnUse">
<stop stop-color="#83BC41"/>
<stop offset="0.1" stop-color="#7FBB41"/>
<stop offset="0.17" stop-color="#76B742"/>
<stop offset="0.24" stop-color="#65B243"/>
<stop offset="0.31" stop-color="#4FAB46"/>
<stop offset="0.36" stop-color="#31A248"/>
<stop offset="0.37" stop-color="#31A249"/>
<stop offset="0.66" stop-color="#018B48"/>
<stop offset="0.87" stop-color="#086B39"/>
<stop offset="1" stop-color="#086B39"/>
</linearGradient>
<linearGradient id="paint2_linear_10_244" x1="89.3051" y1="45.8273" x2="128.297" y2="45.8273" gradientUnits="userSpaceOnUse">
<stop stop-color="#83BC41"/>
<stop offset="0.37" stop-color="#31A249"/>
<stop offset="0.66" stop-color="#018B48"/>
<stop offset="1" stop-color="#086B39"/>
</linearGradient>
<clipPath id="clip0_10_244">
<rect width="211" height="95" fill="white"/>
</clipPath>
</defs>
</svg>
